<svg xmlns="http://www.w3.org/2000/svg" xmlns:xlink="http://www.w3.org/1999/xlink" height="67" id="Layer_1" version="1.1" viewBox="0 0 67 67" width="67" xml:space="preserve" enable-background="new 0 0 67 67">
  <path d="M43.27 26.58v-0.01c0.5 0 1 0.01 1.51 0 0.65-0.02 1.17-0.57 1.17-1.22 0-0.96 0-1.93 0-2.89 0-0.69-0.55-1.24-1.24-1.24 -0.96 0-1.92 0-2.88 0 -0.69 0-1.24 0.55-1.24 1.24 0 0.96 0 1.91 0 2.87 0 0.14 0.03 0.29 0.07 0.43 0.17 0.51 0.64 0.82 1.21 0.82C42.34 26.58 42.81 26.58 43.27 26.58zM34 27.82c-3.38 0-6.13 2.72-6.18 6.09 -0.05 3.46 2.72 6.2 6.04 6.27 3.45 0.07 6.25-2.69 6.32-6.04C40.25 30.68 37.46 27.82 34 27.82zM22.05 31.12v0.08c0 4.51 0 9.03 0 13.55 0 0.65 0.56 1.21 1.21 1.21 7.16 0 14.32 0 21.48 0 0.66 0 1.22-0.56 1.22-1.21 0-4.51 0-9.02 0-13.53v-0.09h-2.91c0.41 1.31 0.54 2.65 0.38 4.01 -0.16 1.36-0.6 2.63-1.32 3.8s-1.64 2.15-2.78 2.92c-2.94 2.01-6.82 2.18-9.95 0.43 -1.58-0.88-2.82-2.12-3.68-3.71 -1.29-2.37-1.49-4.86-0.74-7.45C23.98 31.12 23.02 31.12 22.05 31.12zM46.21 49.26c0.16-0.03 0.32-0.05 0.48-0.08 1.25-0.26 2.26-1.3 2.51-2.56 0.03-0.14 0.05-0.27 0.07-0.41V21.79c-0.02-0.13-0.04-0.27-0.06-0.4 -0.27-1.37-1.4-2.43-2.78-2.62 -0.06-0.01-0.11-0.02-0.17-0.03H21.76c-0.15 0.03-0.3 0.05-0.44 0.08 -1.35 0.31-2.35 1.4-2.54 2.77 -0.01 0.06-0.02 0.11-0.03 0.17V46.24c0.03 0.15 0.05 0.31 0.09 0.47 0.3 1.32 1.43 2.35 2.77 2.52 0.06 0.01 0.13 0.02 0.2 0.03H46.21zM34 64C17.43 64 4 50.57 4 34 4 17.43 17.43 4 34 4s30 13.43 30 30C64 50.57 50.57 64 34 64z" style="clip-rule:evenodd;fill-rule:evenodd;fill:#517FA6"/>
</svg>
